<?xml version="1.0" standalone="no"?>
<!DOCTYPE svg PUBLIC "-//W3C//DTD SVG 20010904//EN"
 "http://www.w3.org/TR/2001/REC-SVG-20010904/DTD/svg10.dtd">
<svg version="1.0" xmlns="http://www.w3.org/2000/svg"
 width="235.000000pt" height="221.000000pt" viewBox="0 0 235.000000 221.000000"
 preserveAspectRatio="xMidYMid meet">

<g transform="translate(0.000000,221.000000) scale(0.100000,-0.100000)"
fill="#000000" stroke="none">
<path d="M985 2189 c-104 -13 -238 -54 -340 -103 -235 -113 -404 -281 -515
-510 -144 -298 -144 -624 0 -922 107 -220 267 -384 487 -496 497 -256 1115
-109 1435 343 67 93 134 238 165 354 23 88 26 119 26 260 0 140 -3 172 -26
257 -84 315 -289 565 -580 708 -206 101 -424 137 -652 109z m380 -64 c234 -49
473 -198 617 -385 356 -461 264 -1104 -209 -1452 -290 -214 -696 -267 -1029
-134 -464 185 -737 645 -660 1116 72 442 425 792 874 865 108 18 297 13 407
-10z"/>
<path d="M611 1418 l-301 -402 0 -83 0 -83 310 0 310 0 2 -172 3 -173 70 0 70
0 3 658 2 657 -84 0 -84 0 -301 -402z m319 -128 l0 -300 -226 0 c-156 0 -225
3 -222 11 4 11 441 589 446 589 1 0 2 -135 2 -300z"/>
<path d="M1532 1720 l-143 -80 -99 0 -100 0 0 -30 0 -30 100 0 101 0 146 -80
c80 -44 147 -80 149 -80 2 0 4 13 4 29 0 28 -8 34 -120 93 -110 58 -138 78
-109 78 6 0 60 27 120 61 100 56 109 63 109 90 0 16 -3 29 -7 29 -5 -1 -72
-37 -151 -80z"/>
<path d="M1349 1390 c-65 -11 -105 -35 -133 -78 -51 -79 -42 -179 23 -243 49
-49 101 -62 226 -57 83 3 107 8 143 28 53 30 81 74 89 139 10 89 -30 162 -109
195 -44 19 -177 28 -239 16z m233 -77 c39 -19 61 -57 62 -107 2 -93 -46 -128
-179 -134 -111 -5 -165 8 -199 49 -44 52 -32 149 23 186 50 33 233 37 293 6z"/>
<path d="M1329 911 c-94 -19 -144 -79 -144 -176 1 -146 79 -184 373 -185 l132
0 0 29 c0 39 -16 42 -203 40 -214 -2 -247 14 -247 120 0 62 27 98 85 111 22 5
113 10 203 10 l162 0 0 30 0 30 -162 -1 c-90 -1 -179 -4 -199 -8z"/>
</g>
</svg>
